<?xml version="1.0" standalone="no"?>
<!DOCTYPE svg PUBLIC "-//W3C//DTD SVG 1.1//EN" "http://www.w3.org/Graphics/SVG/1.1/DTD/svg11.dtd" >
<svg xmlns="http://www.w3.org/2000/svg">
<metadata>
Created by FontForge 20120731 at Thu Jul 28 11:36:28 2016
 By admin
</metadata>
<defs>
<font id="iconfont" horiz-adv-x="1024" >
  <font-face 
    font-family="iconfont"
    font-weight="500"
    font-stretch="normal"
    units-per-em="1024"
    panose-1="2 0 6 3 0 0 0 0 0 0"
    ascent="896"
    descent="-128"
    x-height="792"
    bbox="-16 -212.25 1716 1152"
    underline-thickness="50"
    underline-position="-100"
    unicode-range="U+0078-F0054"
  />
<missing-glyph horiz-adv-x="374" 
d="M34 0v682h272v-682h-272zM68 34h204v614h-204v-614z" />
    <glyph glyph-name=".notdef" horiz-adv-x="374" 
d="M34 0v682h272v-682h-272zM68 34h204v614h-204v-614z" />
    <glyph glyph-name=".null" horiz-adv-x="0" 
 />
    <glyph glyph-name="nonmarkingreturn" horiz-adv-x="341" 
 />
    <glyph glyph-name="x" unicode="x" horiz-adv-x="1001" 
d="M281 543q-27 -1 -53 -1h-83q-18 0 -36.5 -6t-32.5 -18.5t-23 -32t-9 -45.5v-76h912v41q0 16 -0.5 30t-0.5 18q0 13 -5 29t-17 29.5t-31.5 22.5t-49.5 9h-133v-97h-438v97zM955 310v-52q0 -23 0.5 -52t0.5 -58t-10.5 -47.5t-26 -30t-33 -16t-31.5 -4.5q-14 -1 -29.5 -0.5
t-29.5 0.5h-32l-45 128h-439l-44 -128h-29h-34q-20 0 -45 1q-25 0 -41 9.5t-25.5 23t-13.5 29.5t-4 30v167h911zM163 247q-12 0 -21 -8.5t-9 -21.5t9 -21.5t21 -8.5q13 0 22 8.5t9 21.5t-9 21.5t-22 8.5zM316 123q-8 -26 -14 -48q-5 -19 -10.5 -37t-7.5 -25t-3 -15t1 -14.5
t9.5 -10.5t21.5 -4h37h67h81h80h64h36q23 0 34 12t2 38q-5 13 -9.5 30.5t-9.5 34.5q-5 19 -11 39h-368zM336 498v228q0 11 2.5 23t10 21.5t20.5 15.5t34 6h188q31 0 51.5 -14.5t20.5 -52.5v-227h-327z" />
    <glyph glyph-name="uni3433" unicode="&#x3433;" horiz-adv-x="1000" 
d="M676 471q16 0 34 -2q-23 106 -123.5 176t-229.5 70q-95 0 -175.5 -39.5t-127.5 -108t-47 -150.5q0 -138 140 -236l-35 -106l122 62q89 -18 123 -18q15 0 33 2q-11 37 -11 73q0 115 86.5 196t210.5 81zM485.5 573q22.5 0 38.5 -16t16 -38.5t-16 -38t-38.5 -15.5t-38 15.5
t-15.5 38t15.5 38.5t38 16zM240.5 464q-22.5 0 -38 15.5t-15.5 38t15.5 38.5t38 16t38.5 -16t16 -38.5t-16 -38t-38.5 -15.5zM994 197q0 68 -41.5 127t-110 93t-146.5 34q-124 0 -211 -74.5t-87 -179.5t87 -179.5t211 -74.5q35 0 105 18l96 -53l-26 87q123 92 123 202z
M605 236q-16 0 -27.5 11.5t-11.5 27.5t11.5 27t27.5 11t27 -11t11 -27t-11 -27.5t-27 -11.5zM797 234q-16 0 -27 11.5t-11 27.5t11 27t27 11t27.5 -11t11.5 -27t-11.5 -27.5t-27.5 -11.5z" />
    <glyph glyph-name="uni3488" unicode="&#x3488;" horiz-adv-x="1000" 
d="M668 471q14 0 30 -2q-20 94 -109 155.5t-203 61.5q-128 0 -218.5 -76.5t-90.5 -185.5q0 -123 124 -209l-31 -93l108 54q78 -15 108 -15q13 0 29 1q-9 33 -9 65q0 101 76 172.5t186 71.5zM502 555q18 0 28.5 -10.5t10.5 -28t-10.5 -28t-28.5 -10.5t-32 11t-14 27.5
t14 27.5t32 11zM286 478q-18 0 -32.5 11t-14.5 27.5t14.5 27.5t32.5 11q17 0 27.5 -10.5t10.5 -28t-10.5 -28t-27.5 -10.5zM950 230q0 92 -78.5 158.5t-183.5 66.5q-110 0 -186.5 -66t-76.5 -159t76.5 -158.5t186.5 -65.5q31 0 92 16l85 -47l-23 77q108 82 108 178zM603 269
q-12 0 -21.5 9.5t-9.5 21.5t9.5 21.5t21.5 9.5q16 0 27 -9.5t11 -21.5t-11 -21.5t-27 -9.5zM773 269q-12 0 -21.5 9.5t-9.5 21.5t9.5 21.5t21.5 9.5q16 0 27 -9.5t11 -21.5t-11 -21.5t-27 -9.5z" />
    <glyph glyph-name="uniE600" unicode="&#xe600;" 
d="M80 162q-11 13 -11.5 28t8.5 23l417 325q2 1 7.5 5t6.5 5q12 13 26.5 16t23.5 -5l393 -354q9 -8 7 -23t-13.5 -28t-26 -16.5t-23.5 5.5l-358 322l-408 -318q-10 -8 -24 -3.5t-25 18.5z" />
    <glyph glyph-name="uniE601" unicode="&#xe601;" 
d="M376 279q-9 -9 -22.5 -9t-22.5 9t-9 22.5t9 22.5l317 317q9 9 22.5 9t22.5 -9t9 -22.5t-9 -22.5zM693 4q9 -9 9 -22.5t-9 -22.5t-22.5 -9t-22.5 9l-317 317q-9 9 -9 22.5t9 22.5t22.5 9t22.5 -9z" />
    <glyph glyph-name="uniE602" unicode="&#xe602;" 
d="M124 309l47 -49l339 349l338 -349l47 49l-385 396z" />
    <glyph glyph-name="uniE603" unicode="&#xe603;" 
d="M505 249q-1 0 -72.5 78t-72.5 80q-14 19 -22.5 33t-15 30.5t-4.5 30t14 23.5l-207 225q-12 -15 -22 -40t-11.5 -75t14.5 -108.5t65.5 -143t130.5 -174.5q85 -95 168 -156.5t142.5 -84t111 -26t79 5t40.5 21.5l-201 219q-11 -10 -23.5 -11t-30.5 9t-35.5 24t-47.5 40z
M923 87l-157 171q-9 10 -22.5 10.5t-23.5 -8.5l-62 -57l202 -220l62 57q10 10 10 23.5t-9 23.5zM410 597q10 10 10.5 24t-8.5 23l-162 176q-9 10 -22.5 10.5t-23.5 -8.5l-62 -57l207 -225l3 3q3 3 8.5 8t12 11t13 12.5t12 11.5t8.5 8z" />
    <glyph glyph-name="uniE604" unicode="&#xe604;" 
d="M512 812q-113 0 -209.5 -55t-152.5 -149.5t-56 -205.5q0 -46 23 -103t58.5 -109t56 -78.5t35.5 -44.5q35 -40 52 -67q39 -60 134 -181q24 -29 59 -30q36 1 60 30q95 121 134 181q17 27 52 67q15 18 35.5 44.5t55.5 78.5t58 109t23 103q0 111 -56 205.5t-152 149.5
t-210 55zM708 108q-38 -44 -57 -73q-37 -57 -131 -177q-2 -3 -8 -4q-5 1 -8 4q-94 120 -130 177q-19 29 -57 73q-63 72 -110 155.5t-47 138.5q0 94 47 173.5t128.5 126t176.5 46.5q96 0 177.5 -46.5t128.5 -126t47 -173.5q0 -55 -47 -138t-110 -156zM512 556q-66 0 -113 -47
t-47 -113t47 -113t113.5 -47t113 47t46.5 113t-46.5 113t-113.5 47zM512 300q-39 0 -67.5 28t-28.5 68t28.5 68t68 28t67.5 -28t28 -68t-28 -68t-68 -28zM512 300z" />
    <glyph glyph-name="uniE606" unicode="&#xe606;" 
d="M516 187q48 29 77 78.5t29 108.5q0 90 -63 154t-151.5 64t-151.5 -64t-63 -154q0 -60 30 -110t79 -79q-98 -32 -163 -113t-75 -187q-1 -12 6.5 -21t19 -10t20.5 6.5t11 19.5q10 114 93.5 190t197.5 76t197.5 -76t94.5 -190q1 -11 9 -18.5t19 -7.5h2q12 1 19.5 10t6.5 21
q-10 108 -77 189.5t-167 112.5zM250 374q0 67 46 114t111.5 47t111.5 -47t46 -113.5t-46 -113.5t-111.5 -47t-111.5 47t-46 113zM250 374zM957 -115q-9 108 -76.5 189.5t-167.5 112.5q48 29 77 78.5t29 108.5q0 90 -63 154t-151 64q-40 0 -76 -14q32 -18 56 -44q10 1 20 1
q65 0 111 -47t46 -113.5t-46 -113.5t-111 -47q-10 0 -20 1q-11 -12 -24 -22q29 -13 56 -32q14 -8 25 -17q104 -11 176.5 -85t82.5 -179q1 -11 9 -18.5t19 -7.5h3q11 1 18.5 10t6.5 21z" />
    <glyph glyph-name="uniE608" unicode="&#xe608;" 
d="M828 812h-599q-31 0 -53 -22t-22 -54v-869q0 -31 22 -53.5t53 -22.5h599q31 0 53 22.5t22 53.5v869q0 32 -22 54t-53 22zM547.5 -171q-23.5 0 -40 16.5t-16.5 40t16.5 40.5t40 17t39.5 -17t16 -40.5t-16 -40t-39.5 -16.5zM828 94q0 -32 -22 -54t-53 -22h-449
q-31 0 -53 22t-22 54v567q0 31 22 53t53 22h449q31 0 53 -22t22 -53v-567z" />
    <glyph glyph-name="uniE609" unicode="&#xe609;" 
d="M835 570l-53 53l-270 -269l-270 269l-53 -53l269 -270l-269 -270l53 -53l270 269l270 -269l53 53l-269 270z" />
    <glyph glyph-name="uniE60A" unicode="&#xe60a;" 
d="M374 -8518zM374 7190zM100 -8523zM100 7185zM847 270q-75 54 -126 54q-18 0 -35 -9t-27 -21q-20 -24 -31.5 -33.5t-23.5 -9.5h-3q-31 2 -58 14.5t-50 35t-37 40t-32 44.5q-54 79 -41 95q1 1 12.5 14.5t20.5 24t18.5 26.5t11.5 27q12 72 -42 147q-1 2 -15.5 22.5t-18.5 26
t-18 23.5t-21.5 24.5t-21.5 19.5t-25 18t-25 9.5t-28 4.5q-19 0 -45.5 -14t-45.5 -31q-78 -75 -97 -154q-20 -87 29 -202q25 -59 93 -151.5t153 -176.5q229 -226 421 -234h13q37 0 71 10t58 26.5t38.5 30t25.5 26.5q45 53 46 98q1 40 -35.5 82t-108.5 93zM842 7
q-41 -28 -105 -30q-20 -1 -63.5 10t-63.5 22q-84 46 -129.5 80.5t-121.5 107.5q-120 114 -203 257q-29 48 -39 91.5t-2 96.5q7 38 41.5 87.5t69.5 55.5q49 9 126 -123q13 -20 17 -38t0 -31.5t-8 -21.5t-13.5 -18.5t-10.5 -13.5q-14 -20 -18.5 -29t-7.5 -24.5t2 -32.5t18 -43
q34 -70 103 -142q47 -50 96 -70t88 -19q19 0 33 6.5t19.5 12.5t20.5 22q40 57 150 -36q4 -3 17.5 -13.5t22 -18t18.5 -19t14.5 -22.5t1.5 -22q-2 -14 -25 -38.5t-48 -43.5z" />
    <glyph glyph-name="uniE60C" unicode="&#xe60c;" 
d="M391 218q1 41 14 75t29 52.5t36 33t28 18t13 4.5q4 -1 10.5 -4.5t24 -15.5t32 -26.5t28.5 -38t19 -49.5q1 -4 1 -10.5t-2 -22t-7 -30t-18 -31.5t-32 -30q-57 35 -57 173q-3 -5 -7 -14.5t-10 -35t-5 -48.5q0 -1 1 -13t1.5 -14.5t2.5 -14t4.5 -16t7 -14.5t11 -16t15 -15
t20.5 -17t26 -16q3 0 14 7t28.5 22.5t33 35.5t25 51t6.5 65q-7 36 -23.5 66t-34 47.5t-34.5 30t-28 17.5l-10 4q2 3 6 7t14.5 16.5t18.5 26t14 33.5t5 39q-2 27 -12.5 51t-24.5 37.5t-27.5 23.5t-22.5 14l-10 4q3 -2 7.5 -6t16 -17.5t20 -27.5t15 -35.5t6.5 -43.5
q-1 -16 -5 -30.5t-10.5 -24t-13.5 -18t-14.5 -13.5t-13.5 -8.5t-9 -5.5l-4 -1q-3 1 -7.5 3t-16.5 10t-21.5 18.5t-18 29.5t-9.5 41q0 26 7 49t17.5 38t21 26t18.5 16l7 5q-4 -2 -10.5 -5t-23.5 -15.5t-30.5 -27t-25.5 -38.5t-13 -51q-1 -31 14 -60.5t31 -43.5l16 -14
q-6 -3 -14.5 -8t-31 -24t-38.5 -40.5t-28.5 -57t-10.5 -74.5q-1 -43 15.5 -82.5t41 -66t49.5 -47t42 -30.5l17 -9q-4 4 -10.5 11t-25 30t-33 47.5t-29 62.5t-19.5 76zM734 488q14 -11 19.5 -25t5.5 -48q-1 -29 -13 -60.5t-24 -48.5l-12 -17q7 6 18 17.5t32.5 45.5t28.5 67
q7 35 -1 65t-25 39q-25 3 -47 0t-36 -9.5t-24 -13.5t-14 -13l-5 -5q3 1 8.5 2.5t19.5 4.5t26 4.5t24.5 0.5t18.5 -6zM871 412q7 -12 7 -27.5t-3 -23.5l-3 -9q2 1 4 2.5t8 7.5t8.5 13t4 18.5t-5.5 24.5q-5 13 -15 19.5t-20.5 6.5t-20 -2t-15.5 -5l-7 -3q5 1 12.5 0.5t23 -5.5
t22.5 -17zM913 270q0 -38 -43 -81q-27 -24 -54.5 -41t-47 -24.5t-36 -11t-24.5 -3.5h-8q4 0 12 -0.5t31 2t45.5 8t53 19.5t56.5 35q24 25 32.5 35t17.5 29t10 41q-17 25 -53.5 39.5t-64.5 15.5l-28 2q4 -1 10 -4t23 -10.5t30 -15t24.5 -17.5t13.5 -18zM907 162
q2 -3 4.5 -7.5t7 -18t-1.5 -22.5q-2 -10 -12.5 -23t-20.5 -21l-10 -8q2 -1 6 -0.5t15 3t20 7.5t18 16t14 27q1 22 -9 34t-21 12zM521 -14l-5 4q1 -2 5 -4zM687 97q-35 -7 -65.5 -19.5t-49.5 -25t-33 -25t-20 -19.5l-6 -7q3 3 9.5 8t25.5 17.5t39.5 22t50 17t57.5 6.5
q32 -1 58.5 -8.5t42.5 -16t27.5 -18t16.5 -15.5l4 -5q-2 -2 -5 -5.5t-14 -12.5t-24 -16.5t-35 -15t-47 -10.5q-145 -3 -198 37q14 -12 34 -23.5t66.5 -25.5t98.5 -15q41 3 75 13t53.5 22.5t33 25.5t18.5 20.5t5 8.5q-2 4 -8 10.5t-26 23t-43 28.5t-61 19.5t-80 3.5zM293 -50
q-26 4 -47.5 11.5t-34.5 15.5t-22 16t-13 14t-3 8q6 15 19 27.5t26 19.5t29 12.5t22 7t9 2.5q-4 1 -12 1.5t-30 -2t-41 -8.5t-41.5 -23t-36.5 -42q44 -75 174 -88q38 -1 73.5 5.5t59.5 16t42.5 19.5t27 16.5t8.5 7.5q-2 -2 -7.5 -5.5t-24 -12t-40.5 -12.5t-59 -8.5t-78 1.5z
M120 177q36 -24 70 -40t55.5 -22t41 -7t25.5 -0.5t9 1.5q-4 0 -11.5 1t-29 6t-41.5 13t-45.5 23.5t-44.5 36.5q-39 36 -42 81q4 16 31.5 32t50 24.5t24.5 8.5h-13q-8 0 -30 -3t-41 -8t-39 -16t-30 -27q-1 -12 15 -45.5t45 -58.5zM148 350q-12 34 4 60q10 13 24 20t24 7h9
q-2 1 -5.5 3t-14 4.5t-20.5 2.5t-22 -6.5t-20 -18.5q-10 -24 -3 -40t14.5 -24t9.5 -8zM314 287q-6 4 -14 13t-22.5 40t-15.5 67q0 15 1 28t2 20t5 14l4 9q1 2 5 6l4 4q22 12 45 9.5t41 -11.5l19 -8l-3 3q-2 2 -8.5 8t-14 10.5t-19.5 11t-24.5 9t-29.5 4.5t-35 -2
q-5 -6 -9.5 -14t-7.5 -16t-4.5 -16.5t-2 -17t-1 -15.5t0 -14t1 -11.5t1.5 -7.5v-4q2 -20 11 -39.5t20.5 -33t23.5 -24.5t19 -17zM151 64q-42 29 -46 53q-4 11 -2 21.5t8 18.5l5 7h-5q-3 0 -10.5 -2t-13.5 -6.5t-10 -14.5t-4 -24q5 -15 15 -26.5t19 -16.5t21.5 -7.5
t15.5 -2.5h7z" />
    <glyph glyph-name="uniE60D" unicode="&#xe60d;" 
d="M312 90v-152h583v893h-766v-710h183v-1v-30zM276 -62l-147 151h147v-151zM727 660l-147 -251h116v-56h-136v-77h136v-56h-136v-111h-75v111h-140v56h140v77h-140v56h118l-145 251h85l102 -196q8 -16 19 -41h1q8 21 20 43l102 194h80z" />
    <glyph glyph-name="uniE60E" unicode="&#xe60e;" 
d="M256 384l465 512l47 -51l-419 -461l419 -461l-47 -51z" />
    <glyph glyph-name="uniE60F" unicode="&#xe60f;" horiz-adv-x="1639" 
d="M825 9q75 0 165.5 29.5t170 74.5t148.5 95t112.5 93t50.5 67q-2 26 -40.5 73t-105 101.5t-146 103t-175 81t-180.5 32.5q-83 0 -177 -26.5t-175.5 -69.5t-149.5 -94t-107 -105t-39 -98q2 -22 41 -65t106.5 -92.5t147 -94.5t174.5 -75t179 -30zM825 -66q-87 0 -190 31.5
t-194.5 81.5t-168.5 107t-122 114t-45 97q0 63 45.5 132t122.5 127.5t169.5 106.5t193.5 75.5t189 27.5q93 0 199 -35t196 -90t164.5 -118t117.5 -124t43 -102q0 -34 -46.5 -88.5t-125 -113t-170 -110.5t-194 -85.5t-184.5 -33.5v0zM825 197q74 0 127 54.5t53 132.5
t-53 132.5t-127.5 54.5t-127 -54.5t-52.5 -132.5t52.5 -132.5t127.5 -54.5zM825 121q-105 0 -178.5 77t-73.5 186t73.5 186t178 77t178.5 -77t74 -186t-74 -186t-178 -77v0z" />
    <glyph glyph-name="uniE610" unicode="&#xe610;" 
d="M512 128l-512 465l51 47l461 -419l461 419l51 -47z" />
    <glyph glyph-name="uniE611" unicode="&#xe611;" 
d="M117 792zM915 -5q0 -68 -41.5 -107t-109.5 -39h-496q-68 0 -109.5 39t-41.5 107q0 30 2 59t8 62t15 61.5t24 55.5t35 46t48.5 30t63.5 11q5 0 24 -12t42.5 -27t61 -27.5t75.5 -12.5t75.5 12.5t61 27.5t42.5 27t24 12q35 0 63.5 -11t48.5 -30t35 -46t24 -55.5t15 -61.5
t8 -62t2 -59zM734 502q0 -90 -64 -154t-154 -64t-154 64t-64 154t64 153.5t154 63.5t154 -63.5t64 -153.5z" />
    <glyph glyph-name="uniE612" unicode="&#xe612;" horiz-adv-x="1088" 
d="M544 -180q-20 0 -34 14q-111 116 -154 161h-169q-63 0 -109 48.5t-46 114.5v466q0 64 44.5 110t107.5 46h720q63 0 107.5 -46t44.5 -110v-466q0 -66 -46 -114.5t-109 -48.5h-174l-21 -21l-22 -24q-11 -11 -22.5 -23t-21.5 -23t-19.5 -21.5t-17 -19t-13 -14.5t-8.5 -10
l-3 -4q-15 -15 -35 -15zM184 716q-36 0 -62 -27t-26 -65v-466q0 -39 27 -69t64 -30h196l10 -10q35 -38 150 -157q93 103 149 158l9 9h200q37 0 64 30t27 69v466q0 38 -26 65t-62 27h-720zM304 438q-25 0 -42.5 -18.5t-17.5 -44t17.5 -43.5t42.5 -18t42.5 18t17.5 43.5
t-17.5 44t-42.5 18.5zM544 438q-25 0 -42.5 -18.5t-17.5 -44t17.5 -43.5t42.5 -18t42.5 18t17.5 43.5t-17.5 44t-42.5 18.5zM784 438q-25 0 -42.5 -18.5t-17.5 -44t17.5 -43.5t42.5 -18t42.5 18t17.5 43.5t-17.5 44t-42.5 18.5z" />
    <glyph glyph-name="uniE613" unicode="&#xe613;" 
d="M165 369h694v-138h-694v138z" />
    <glyph glyph-name="uniE614" unicode="&#xe614;" 
d="M855 552q8 9 8 21t-8 20l-50 50q-8 8 -20 8t-21 -8l-231 -232q-9 -9 -21 -9t-21 9l-231 232q-9 8 -21 8t-20 -8l-50 -50q-8 -8 -8 -20t8 -21l232 -231q9 -9 9 -21t-9 -21l-232 -231q-8 -9 -8 -21t8 -20l50 -50q8 -8 20 -8t21 8l231 232q9 9 21 9t21 -9l231 -232
q9 -8 21 -8t20 8l50 50q8 8 8 20t-8 21l-232 231q-9 9 -9 21t9 21z" />
    <glyph glyph-name="uniE615" unicode="&#xe615;" 
d="M475 337h-439q-15 0 -25.5 -11t-10.5 -26t10.5 -26t25.5 -11h439v-439q0 -15 11 -25.5t26 -10.5t26 10.5t11 25.5v439h439q15 0 25.5 11t10.5 26t-10.5 26t-25.5 11h-439v439q0 15 -11 25.5t-26 10.5t-26 -10.5t-11 -25.5v-439z" />
    <glyph glyph-name="uniE616" unicode="&#xe616;" 
d="M512 802q-102 0 -195 -39.5t-160.5 -107t-107 -160.5t-39.5 -195t39.5 -195t107 -160.5t160.5 -107t195 -39.5t195 39.5t160.5 107t107 160.5t39.5 195t-39.5 195t-107 160.5t-160.5 107t-195 39.5zM683 109l-18 -18q-7 -7 -17.5 -7t-17.5 7l-163 163q-5 5 -5 28v319
q0 11 7 18t18 7h25q10 0 17.5 -7t7.5 -18v-311l146 -145q7 -8 7 -18t-7 -18zM683 109z" />
    <glyph glyph-name="uniE617" unicode="&#xe617;" 
d="M342 -30l-44 44l-44 45l170 170l170 170l-170 161l-169 161l43 46l43 45l216 -205l217 -206l-216 -215z" />
    <glyph glyph-name="uniE618" unicode="&#xe618;" horiz-adv-x="1041" 
d="M586 312h366q30 0 51.5 21.5t21.5 52t-21.5 52t-51.5 21.5h-366h-147h-366q-30 0 -51.5 -21.5t-21.5 -52t21.5 -52t51.5 -21.5h366h147z" />
    <glyph glyph-name="uniE619" unicode="&#xe619;" 
d="M512 803q-102 0 -195.5 -39.5t-160.5 -107t-107 -160.5t-40 -195.5t40 -195.5t107 -160.5t160.5 -107.5t195.5 -40t195.5 40t160.5 107.5t107 160.5t40 195.5t-40 195.5t-107 160.5t-160.5 107t-195.5 39.5zM319 -54h-42v459h-83v39h83v217h42v-217h83v-39h-83v-459z
M445 372l38 -12q-34 -101 -78 -193q-19 9 -40 15q48 96 80 190zM675 -37h-81q-3 32 -7 45q39 -3 84 -3q68 -5 69 80q9 202 10 384h-142q-3 -70 -5 -105q-7 -286 -191 -418q-14 15 -33 30q175 122 183 384q3 38 5 109h-125v39h127q2 78 2 153h41v-42q-2 -78 -3 -111h183
q-3 -188 -11 -420q1 -129 -106 -125zM808 357l37 16q48 -100 80 -175l-39 -17q-34 85 -78 176z" />
    <glyph glyph-name="uniE61A" unicode="&#xe61a;" horiz-adv-x="1764" 
d="M756 77q-11 0 -22 5q-87 37 -139.5 116t-52.5 175q0 130 92.5 223t222.5 93t222.5 -93t92.5 -223q0 -94 -50 -173t-133 -117q-22 -10 -44 -2t-32 29.5t-1.5 43.5t29.5 32q53 24 85 75t32 112q0 83 -59 142.5t-142 59.5t-142 -59.5t-59 -142.5q0 -61 33.5 -112t89.5 -74
q21 -10 30 -31.5t0 -43.5q-7 -16 -21.5 -25.5t-31.5 -9.5zM858 -117q-103 0 -208.5 27.5t-189 68t-167 97t-139 103.5t-107.5 98q-47 47 -47 112.5t47 112.5q52 51 107.5 98t139 103.5t167 97t189 68t208 27.5t208 -27.5t189.5 -68t167.5 -97t139 -103.5t106.5 -98
q48 -47 48 -112.5t-48 -112.5q-48 -48 -94 -86q-18 -15 -41.5 -13t-38.5 20t-13 41.5t20 38.5q41 35 87 80q14 14 14 32t-14 31q-41 41 -86.5 80.5t-122.5 93t-153.5 92.5t-175 67t-192.5 28t-192.5 -28t-175.5 -67t-153.5 -92.5t-122.5 -93t-86 -80.5q-14 -13 -14 -31
t14 -32q40 -40 86 -80t122.5 -93.5t153.5 -92.5t175.5 -67t192.5 -28q127 0 243 38.5t238 121.5q20 14 43 9.5t36.5 -24t9 -43t-24.5 -36.5q-135 -92 -268.5 -136t-276.5 -44z" />
    <glyph glyph-name="uniE61B" unicode="&#xe61b;" 
d="M512 896q-212 0 -362 -150t-150 -362t150 -362t362 -150t362 150t150 362t-150 362t-362 150zM601 565l102 102q10 11 27.5 11t30.5 -11q13 -12 13 -28.5t-13 -29.5l-102 -102q-10 -10 -27.5 -10t-27.5 10q-12 12 -13 28.5t10 29.5zM276 667q11 11 28.5 11t30.5 -11
l102 -102q13 -13 13 -29t-13 -29q-10 -10 -27 -10t-28 10l-102 102q-13 13 -13.5 30.5t9.5 27.5zM758 305q18 0 29.5 -11.5t11.5 -29t-11.5 -29t-29.5 -11.5h-202v-157q0 -18 -11.5 -29.5t-29.5 -11.5q-17 0 -27 12t-10 29v157h-202q-17 0 -28.5 11.5t-11.5 29t11.5 29
t28.5 11.5h202v93h-202q-17 0 -28.5 11.5t-11.5 29.5t11.5 29.5t28.5 11.5h482q18 0 29.5 -11.5t11.5 -29.5t-11.5 -29.5t-29.5 -11.5h-202v-93h202z" />
    <glyph glyph-name="uniE61C" unicode="&#xe61c;" 
d="M517 -197q-97 0 -185.5 38t-152.5 102t-102 152.5t-38 185.5t38 185.5t102 152.5t152.5 102t185.5 38t185.5 -38t152.5 -102t102 -152.5t38 -185.5t-38 -185.5t-102 -152.5t-152.5 -102t-185.5 -38zM802 124l-313 92h1v1v335q0 17 -13 29.5t-31 12.5t-31 -12.5t-13 -29.5
v-335q0 -13 10 -25q-4 -16 4 -30t25 -19l335 -99q17 -5 33.5 3t21.5 24.5t-3 32t-26 20.5z" />
    <glyph glyph-name="uniE61F" unicode="&#xe61f;" 
d="M512 798q-113 0 -208.5 -55.5t-150.5 -151t-55 -207.5t55.5 -207.5t151 -151t207.5 -55.5t207.5 55.5t151 151t55.5 207.5t-55 207.5t-150.5 151t-208.5 55.5zM658 361l-206 -206q-9 -9 -22.5 -9t-22.5 9t-9 22t9 23l184 184l-183 182q-9 9 -9 22t9 22q10 9 23 9t21 -9
l206 -204q9 -9 9 -23q0 -13 -9 -22z" />
    <glyph glyph-name="uniE620" unicode="&#xe620;" 
d="M755 407q10 -10 10 -24t-10 -24l-441 -442q-10 -10 -24.5 -10t-24.5 10q-10 11 -10 25t10 24l441 442q10 10 24.5 10t24.5 -11zM266 849q10 10 24.5 10t24.5 -10l441 -441q10 -10 10 -24.5t-10 -24.5t-24.5 -10t-24.5 10l-441 441q-10 10 -10 24.5t10 24.5z" />
    <glyph glyph-name="uniE621" unicode="&#xe621;" 
d="M660.5 129q-9.5 0 -16.5 7l-302 302q-6 6 -6 15.5t6.5 16.5t16 7t16.5 -7l302 -302q7 -6 7 -15.5t-7 -16.5t-16.5 -7zM358.5 129q-9.5 0 -16 7t-6.5 16.5t6 15.5l302 302q7 7 16.5 7t16.5 -7t7 -16.5t-7 -15.5l-302 -302q-7 -7 -16.5 -7zM509.5 -144q-90.5 0 -173.5 35.5
t-143 95.5t-95.5 142.5t-35.5 173.5t35.5 174t95.5 142.5t143 95t173.5 35.5t173.5 -35.5t143 -95t95.5 -142.5t35.5 -174t-35.5 -173.5t-95.5 -142.5t-143 -95.5t-173.5 -35.5zM509.5 704q-108.5 0 -201 -53.5t-146.5 -146t-54 -201.5t54 -201.5t146.5 -146t201 -53.5
t201 53.5t146.5 146t54 201.5t-54 201.5t-146.5 146t-201 53.5z" />
    <glyph glyph-name="uniE622" unicode="&#xe622;" 
d="M98 53l322 327l92 -76l90 76l316 -327h-820zM67 119q0 -9 3 -20l307 315l-310 251v-546zM930 715l-418 -331l-418 331h836zM957 664l-309 -249l306 -316q3 11 3 20v545z" />
    <glyph glyph-name="uniE623" unicode="&#xe623;" 
d="M509 728q2 0 5 2q6 5 17 15q12 12 24.5 17t33.5 -3q10 -3 17 -9q9 -9 12 -11q6 -5 12.5 -9t17 -4t17.5 3.5t14 6t14 3.5t16 -2q11 -4 14.5 -12t2 -16.5t-7 -16.5t-14.5 -14q-20 -12 -30 -25q-11 -13 -21 -28q-6 -7 -12 -17q-6 -9 -11 -19q-6 -11 -14 -22h-216
q-7 13 -15 25q-6 10 -13.5 20.5t-12.5 18.5q-10 16 -23 28t-26 21q-14 10 -19 26t10 28q7 5 16.5 4t19.5 -4l21 -7q9 -3 18 -1q15 3 22 11t25 20q13 8 30 5.5t25 -11.5q4 -5 9 -8q5 -5 10 -7q6 -5 12 -8zM627 519q12 -16 31 -36q15 -17 39 -40q22 -23 53 -48
q25 -22 51.5 -51.5t46.5 -69.5t28 -91q8 -52 -3 -116q-9 -52 -37 -98.5t-73.5 -81t-109 -55t-143.5 -20.5q-83 0 -146.5 23.5t-108 61t-70.5 84t-35 92.5q-9 51 -2.5 98.5t24.5 88.5t44.5 75.5t58.5 61.5q27 25 49 46t36 39q18 20 32 38zM516 199l-50 50q-11 10 -15 16
q-8 7 -21.5 11.5t-23.5 -5.5q-8 -12 -4 -23t9 -17l16 -15q8 -8 25 -27l35 -35l-1 -22h-71q-10 0 -16.5 -7.5t-6.5 -16t6 -14.5t17 -6h71v-37h-71q-10 0 -16.5 -5.5t-6.5 -15.5q-1 -8 5.5 -13.5t17.5 -5.5h71v-21q1 -15 9 -20.5t21 -5.5q13 -1 20 7q8 9 8 19v21h73
q11 0 17.5 4.5t5.5 14.5q0 22 -29 22h-67l1 36l68 1q15 -1 21 6t6 16q0 8 -6.5 15t-21.5 7h-68v20q18 16 33 32q12 12 25 26q12 13 18 18q24 21 11 37q-7 9 -18.5 9t-21.5 -8q-7 -6 -18 -16q-13 -11 -25 -22q-14 -13 -32 -30zM516 199z" />
    <glyph glyph-name="uniE624" unicode="&#xe624;" 
d="M775 406l-479 480q-11 10 -25.5 10t-25 -10.5t-10.5 -25t10 -25.5l456 -456l-448 -448q-11 -10 -11 -24.5t10.5 -24.5t24.5 -10t25 10l465 466q1 0 4 6q1 0 2 0.5t2 1.5q10 10 10 25t-10 25z" />
    <glyph glyph-name="uniE625" unicode="&#xe625;" 
d="M835 -128h-645q-41 0 -70.5 31.5t-29.5 76.5v323q0 45 29.5 76.5t70.5 31.5v135q0 95 43 175.5t117.5 127.5t161.5 47t161.5 -47t118 -127.5t43.5 -175.5q0 -11 -7.5 -19t-18 -8t-17.5 7.5t-7 19.5q0 122 -80 209t-193 87t-193 -87t-80 -209v-135h595q41 0 70.5 -31.5
t29.5 -76.5v-323q0 -45 -29 -76.5t-70 -31.5zM884 303q0 22 -14.5 38t-34.5 16h-645q-21 0 -35.5 -16t-14.5 -38v-323q0 -22 14.5 -38t35.5 -16h645q20 0 34.5 16t14.5 38v323zM537 150v-89q0 -11 -7.5 -19t-17.5 -8t-17.5 8t-7.5 19v89q-25 16 -25 45q0 23 14.5 38.5
t35.5 15.5t35.5 -15.5t14.5 -38.5q0 -29 -25 -45z" />
    <glyph glyph-name="uniE626" unicode="&#xe626;" 
d="M916 345h-358v358q0 18 -13 31.5t-31.5 13.5t-32 -13.5t-13.5 -31.5v-358h-358q-18 0 -31 -13t-13 -32t13 -32t31 -13h358v-358q0 -18 13.5 -31.5t32 -13.5t31.5 13.5t13 31.5v358h358q19 0 32 13t13 32t-13 32t-32 13zM916 345z" />
    <glyph glyph-name="uniE62A" unicode="&#xe62a;" 
d="M606 300l378 378q20 19 20 47t-20 47.5t-47.5 19.5t-46.5 -20l-378 -378l-378 378q-19 20 -46.5 20t-47.5 -20t-20 -47.5t20 -46.5l378 -378l-378 -378q-20 -19 -20 -46.5t20 -47t47.5 -19.5t46.5 19l378 378l378 -378q19 -20 46.5 -20t47.5 19.5t20 47.5t-20 47z" />
    <glyph glyph-name="uniE62B" unicode="&#xe62b;" 
d="M676 466q-22 0 -37.5 -15.5t-15.5 -37.5t15.5 -37.5t37 -15.5t37 15.5t15.5 37.5t-15.5 37.5t-36.5 15.5zM508 465q-22 0 -37.5 -15.5t-15.5 -37.5t15.5 -37.5t37 -15.5t37 15.5t15.5 37.5t-15.5 37.5t-36.5 15.5zM343 465q-22 0 -37 -15.5t-15 -37.5t15 -37.5t37 -15.5
t37 15.5t15 37.5t-15 37.5t-37 15.5zM511 895q-104 0 -198.5 -40.5t-163 -109t-109 -163t-40.5 -199t40.5 -199t109 -163t163 -109t199 -40.5t199 40.5t163 109t109 163t40.5 199t-40.5 199t-109 163t-163 109t-199.5 40.5zM812 244q0 -26 -25 -45t-60 -19h-55l9 -127
l-170 127h-215q-35 0 -60 19t-25 45v325q0 26 25 45t60 19h431q35 0 60 -19t25 -45v-325z" />
    <glyph glyph-name="uniE62E" unicode="&#xe62e;" 
d="M419 219zM875 409h-723q-10 0 -17 -7.5t-7 -17.5t7 -17t17 -7h723q10 0 17 7t7 17t-7 17.5t-17 7.5z" />
    <glyph glyph-name="uniE630" unicode="&#xe630;" 
d="M982 831l-207 48q-11 2 -22 -3l-242 -110l-223 93q-13 5 -26 0l-240 -94q-22 -8 -22 -32v-658q0 -18 15 -28.5t32 -3.5l227 88l224 -93q7 -3 13 -3q8 0 15 3l18 9l77 18l-21 42l-19 38h1q-27 45 -27 97q0 80 57 137t137 57t137 -57t57 -137q0 -25 -6 -49q-7 -26 -20 -48
l-12 -25l61 -14q16 -4 29.5 6.5t13.5 26.5v658q0 12 -8 21.5t-19 12.5zM288 283q0 -6 -4 -10t-9.5 -4t-9.5 4t-4 10v417q0 6 4 10t9.5 4t9.5 -4t4 -10v-417zM525 409q0 -6 -4 -10t-9.5 -4t-10 4t-4.5 10v210q0 6 4.5 10t10 4t9.5 -4t4 -10v-210zM786 476q0 -6 -4 -10t-10 -4
t-10 4t-4 10v254q0 5 4 9.5t10 4.5t10 -4.5t4 -9.5v-254zM913 242q0 68 -48 116t-116 48t-116 -48t-48 -116q0 -43 22 -82l16 -31l31 -62l95 -193l130 263l12 23q11 19 17 41q5 21 5 41zM749 194q-28 0 -48.5 20t-20.5 48.5t20.5 48.5t49 20t48.5 -20t20 -48.5t-20 -48.5
t-49 -20z" />
    <glyph glyph-name="uniE631" unicode="&#xe631;" 
d="M561 8q-9 -6 -55.5 -30t-88.5 -45l-42 -21q-19 -13 -41.5 -9t-33.5 25l-59 148q-110 59 -175.5 158t-65.5 211q0 85 39.5 161.5t107 132.5t163 89t202.5 33q138 0 255.5 -54.5t187 -150.5t69.5 -211q0 -108 -62 -205t-168.5 -159.5t-232.5 -72.5zM512 804
q-120 0 -224.5 -47.5t-167.5 -130.5t-63 -181q0 -101 64.5 -189.5t172.5 -142.5l49 -136q2 -5 3 -7t3 -3.5t2.5 -1.5t3.5 0.5t4.5 2t6.5 4.5t9 5l172 87q85 6 163.5 41t134 87.5t89 119t33.5 133.5q0 98 -63.5 181t-168 130.5t-223.5 47.5zM721 390q-23 0 -39 16t-16 38
t16 38t39 16t39 -16t16 -38t-16 -38t-39 -16zM505 388q-23 0 -39.5 16.5t-16.5 39.5t16.5 39.5t39.5 16.5t39.5 -16.5t16.5 -39.5t-16.5 -39.5t-39.5 -16.5zM303 388q-23 0 -39 16t-16 39t16 39t39 16t39 -16t16 -39t-16 -39t-39 -16z" />
    <glyph glyph-name="uniE632" unicode="&#xe632;" 
d="M1024 732l-80 80l-439 -438l-425 425l-80 -81l425 -425l-412 -411l81 -81l411 412l425 -425l81 80l-425 425z" />
    <glyph glyph-name="uniE634" unicode="&#xe634;" 
d="M512 83l279 -147l-53 311l226 220l-312 45l-140 283l-140 -283l-312 -45l226 -220l-53 -311zM512 159l189 -99l-36 210l152 149l-211 30l-94 191l-94 -191l-211 -30l152 -149l-36 -210z" />
    <glyph glyph-name="uniE636" unicode="&#xe636;" 
d="M794 767v-51q12 -26 12 -38q0 -30 -21 -53.5t-49 -23.5q-29 0 -49.5 21.5t-20.5 55.5q0 12 12 38v51h-102v-51q13 -26 13 -38q0 -30 -21 -53.5t-50 -23.5t-49.5 21.5t-20.5 55.5q0 12 13 38v51h-109v-51q13 -26 13 -38q0 -30 -21 -53.5t-50 -23.5t-49.5 21.5t-20.5 55.5
q0 12 13 38v51h-77v-742l230 -237h468v979h-64zM806 -161h-320q-18 0 -31 12.5t-19.5 32t-9.5 43.5t-2.5 48t1.5 43.5t3 31.5l1 13q-4 -1 -11.5 -2.5t-29 -4t-41 -3.5t-43.5 1t-42 8t-30.5 19.5t-13.5 32.5v429h595v-704h-7zM755 326h-486v-52h486v52zM755 486h-486v-52h486
v52zM755 166h-486v-52h486v52zM736 633q14 0 26 12t12 26v103q-12 38 -38 38q-14 0 -26 -12t-12 -26v-103q0 -14 12 -26t26 -12zM288 633q14 0 26 12t12 26v103q0 15 -10 26.5t-28 11.5q-14 0 -23 -11.5t-9 -26.5v-103q0 -15 9 -26.5t23 -11.5zM512 633q14 0 26 12t12 26
v103q0 14 -12 26t-26 12t-26 -12t-12 -26v-103q0 -14 12 -26t26 -12z" />
    <glyph glyph-name="uniE637" unicode="&#xe637;" 
d="M512 -128q-16 0 -26 13l-325 404q-1 1 -2 3q-60 95 -60 206q0 108 55.5 199.5t150.5 145t207 53.5t207 -53.5t150.5 -145t55.5 -199.5q0 -111 -60 -205l-2 -4l-324 -404q-10 -13 -27 -13zM215 330l297 -369l296 370q48 77 48 167q0 89 -46 165t-125.5 120.5t-173 44.5
t-172.5 -44.5t-125.5 -120.5t-46.5 -165q0 -90 48 -168zM512 311q-81 0 -138.5 55t-57.5 133.5t57.5 134t138.5 55.5t138 -55.5t57 -134t-57 -133.5t-138 -55zM511.5 620q-52.5 0 -89.5 -35t-37 -85t37 -85.5t89.5 -35.5t90 35.5t37.5 85.5t-37.5 85t-90 35z" />
    <glyph glyph-name="uniE639" unicode="&#xe639;" horiz-adv-x="1075" 
d="M756 535l-188 261q-11 15 -29 16h-1h-1h-1q-18 -1 -29 -16l-188 -262q-10 -13 -7.5 -28.5t15 -25t28 -7t24.5 15.5l159 220l158 -219q9 -13 24 -15.5t27.5 7t15 25.5t-6.5 28zM869 -205v1h1q14 11 14 30l-1 322q0 16 -11.5 27.5t-27 11.5t-26.5 -11t-11 -26l1 -272
l-256 85q-15 5 -29 -2t-18.5 -22t3 -29t21.5 -20l306 -100q17 -6 32 4h1q0 1 1 1zM1073 422v1v1h-1v1q-6 17 -24 23l-307 98q-15 5 -29.5 -2t-19.5 -22t2 -29t23 -18l258 -83l-159 -218q-10 -13 -7.5 -28t15 -24t28.5 -6.5t25 15.5l190 259q11 15 6 32zM570 -61
q-5 15 -18.5 22t-28.5 2l-256 -85v272q1 15 -10 26t-27 11t-27 -11.5t-11 -27.5l-1 -322q-1 -19 14 -30l1 -1l1 -1q15 -10 33 -4l305 100q15 6 22.5 20t2.5 29zM382 522q-5 15 -19 22t-29 2l-308 -98q-17 -6 -24 -23v-1q0 -1 -1 -1v-1q-5 -17 7 -32l189 -259
q10 -13 25.5 -15.5t28.5 6.5t15 24t-7 28l-159 218l258 83q15 4 22 18t2 29zM382 522z" />
    <glyph glyph-name="uniE63C" unicode="&#xe63c;" horiz-adv-x="1025" 
d="M880 866h-734q-60 0 -102.5 -32t-42.5 -77v-554q0 -45 42.5 -77t102.5 -32h366l290 -218l-16 218h93q61 0 103.5 32t42.5 77v554q0 45 -42.5 77t-102.5 32zM225 399q-37 0 -63 26.5t-26 64t26 63.5t63 26t63.5 -26t26.5 -63.5t-26.5 -64t-63.5 -26.5zM506 399
q-37 0 -63 26.5t-26 64t26 63.5t63 26t63 -26t26 -63.5t-26 -64t-63 -26.5zM793 400q-37 0 -63.5 26.5t-26.5 64t26.5 64t63.5 26.5t63 -26.5t26 -64t-26 -64t-63 -26.5z" />
    <glyph glyph-name="uniE640" unicode="&#xe640;" 
d="M960 487q-21 -29 -44.5 -39.5t-43 -5.5t-38.5 19t-30 26.5t-18 24.5q-8 13 -32 35.5t-59.5 48t-84.5 43.5t-97 18q-56 0 -107 -18t-84.5 -46t-53 -48.5t-29.5 -36.5q-7 -12 -18 -25t-30 -27.5t-38.5 -19.5t-43.5 6t-45 41q-5 6 -9 19.5t-5.5 34.5t1.5 44.5t16 49.5
t33.5 51t56.5 47.5t83.5 39.5t118 27.5t154.5 10.5q85 0 154.5 -10t116.5 -27t83.5 -39t56.5 -46.5t33 -50.5t16 -49.5t1.5 -43.5t-5.5 -34t-9 -20zM513 757q-98 0 -173.5 -12.5t-119 -32.5t-71.5 -45.5t-37.5 -50t-10.5 -48t3.5 -39t9.5 -21.5q12 -15 23.5 -18t24.5 7.5
t21 20t23 29.5q5 7 8 10q13 18 34.5 38.5t59.5 48.5t92.5 46t112.5 18q49 0 102 -18.5t93 -45t66 -48.5t37 -35l3 -3q15 -19 24 -29t24 -22.5t27 -11t21 16.5q5 7 9.5 22t3 38t-11 47.5t-37.5 49.5t-71 44t-118 31.5t-172 12.5zM513 607q62 0 122 -35.5t104 -92t78.5 -123.5
t52 -132t17.5 -115q0 -107 -59.5 -128.5t-314 -21.5t-314.5 21.5t-60 128.5q0 49 18 113.5t52 131.5t78.5 124t104 93t121.5 36zM513 9q221 0 272.5 18t51.5 108q0 34 -15 86.5t-45 110.5t-68 108.5t-90 83.5t-105.5 33t-105.5 -33t-90.5 -84t-68 -109t-45 -110t-15.5 -86
q0 -90 51.5 -108t272.5 -18zM513 458q52 0 88.5 -36.5t36.5 -88.5t-36.5 -88.5t-88 -36.5t-88 36.5t-36.5 88.5t36.5 88.5t87.5 36.5zM513 258q31 0 53 22t22 53t-22 53t-53 22t-53 -22t-22 -53t22 -53t53 -22zM513 258z" />
    <glyph glyph-name="uniE641" unicode="&#xe641;" 
d="M498 858q3 0 6 2q7 5 18 16q14 12 27 17.5t36 -3.5q11 -3 18 -9q10 -9 13 -12q6 -6 13.5 -9.5t18.5 -3.5t19 3t15.5 6t14.5 4t17 -2q12 -5 15.5 -13t2 -17t-7.5 -18t-15 -15q-22 -14 -33 -28q-11 -13 -22 -29q-6 -8 -13 -18q-7 -11 -12 -21q-7 -12 -15 -23h-233
q-7 13 -15 26q-7 11 -15 22t-13 20q-12 17 -26 30t-27 23q-15 10 -20.5 27.5t10.5 29.5q8 6 18 5t21 -5q9 -2 22 -6q10 -4 20 -1q15 3 23 11.5t27 20.5q15 9 33 6.5t27 -11.5q4 -6 9 -10q6 -4 11 -7q6 -5 12 -8zM625 633q14 -18 34 -39q17 -19 42 -44q24 -23 57 -51
q27 -23 56 -55t50 -75t30 -98q8 -56 -3 -125q-10 -56 -40 -106t-79.5 -87t-117.5 -59t-154 -22q-89 0 -158 25.5t-116.5 66t-75.5 90.5t-37 99q-11 55 -3.5 105.5t26.5 95t48 81.5t62 67q30 26 53 48q24 23 40 43q19 21 33 40h253v0zM506 288l-54 54q-11 11 -15 17
q-10 8 -24.5 13t-24.5 -7q-9 -12 -4.5 -24t10.5 -18l17 -16q9 -10 27 -29q17 -18 37 -38l-1 -24h-77q-10 0 -17.5 -8t-7.5 -17t7 -15.5t18 -6.5h77v-40h-77q-10 0 -17.5 -6t-7.5 -16q-1 -9 6.5 -15t18.5 -6h77v-23q1 -16 10 -22t22 -6q14 -1 22 8q9 10 9 20v23h78q12 0 19 5
t6 16q0 24 -31 24h-72l1 38l73 1q16 -1 22.5 6t6.5 18q0 9 -7.5 16t-22.5 7h-73v21q19 19 34 35q14 14 27 28q14 14 21 20q26 22 11 39q-8 10 -20.5 10t-22.5 -9q-7 -6 -19 -16q-14 -13 -27 -25q-15 -13 -35 -32z" />
    <glyph glyph-name="uniE645" unicode="&#xe645;" 
d="M434 222q-207 207 -151 263q4 4 12 11q17 17 25 25.5t19.5 24.5t14 27.5t3.5 30t-7 36.5t-22.5 43t-37.5 54q-19 23 -37.5 39t-35.5 22.5t-31.5 9.5t-30.5 -3t-27.5 -11t-27 -19t-24 -22t-23.5 -24t-22 -22q-22 -23 -26.5 -67t11.5 -106t50 -132.5t94.5 -153.5
t138.5 -161t161 -138.5t153.5 -94.5t132.5 -50t106 -11.5t67 27.5q6 6 22 21t24 23.5t22 24t18.5 27t11 27.5t3.5 30.5t-9.5 31.5t-22.5 35.5t-39 37.5q-29 23 -54 37.5t-43 22.5t-36.5 7t-30 -3.5t-27.5 -14t-24.5 -19.5t-25.5 -25q-7 -8 -11 -12q-56 -56 -263 151v0z" />
    <glyph glyph-name="uniE646" unicode="&#xe646;" 
d="M277 195l251 250l251 -250h-502z" />
    <glyph glyph-name="uniE64A" unicode="&#xe64a;" 
d="M512 730q-120 0 -222 -51.5t-161.5 -140t-59.5 -192.5q0 -93 47.5 -173.5t129.5 -133.5q-1 -57 0 -169q107 71 160 103q52 -11 106 -11q120 0 222 51.5t161.5 139.5t59.5 192.5t-59.5 193t-161.5 140t-222 51.5zM299.5 287q-24.5 0 -41.5 17t-17 41.5t17 41.5t41.5 17
t42 -17t17.5 -41.5t-17.5 -41.5t-42 -17zM521 287q-24 0 -41.5 17t-17.5 41.5t17.5 41.5t41.5 17t41.5 -17t17.5 -41.5t-17.5 -41.5t-41.5 -17zM742.5 287q-24.5 0 -42 17t-17.5 41.5t17.5 41.5t42 17t41.5 -17t17 -41.5t-17 -41.5t-41.5 -17z" />
    <glyph glyph-name="uniE64C" unicode="&#xe64c;" 
d="M889 220q-5 14 -29 16l-164 18q98 155 98 240q0 87 -42.5 160t-116.5 115.5t-161 42.5t-161 -42.5t-117 -115.5t-43 -160q0 -89 110 -257l-234 26q-13 1 -21.5 -3.5t-7.5 -12.5l63 -386q3 -16 26 -19l296 -43q3 -1 5.5 -1t5.5 1l283 33l313 -43q3 -1 6 -1q12 0 19 4
q9 6 6 16zM473.5 680q66.5 0 113.5 -46.5t47 -112.5t-47 -112.5t-113.5 -46.5t-113 46.5t-46.5 112.5t46.5 112.5t113 46.5zM585 74l-22 -3q11 14 17 22zM56 227l219 -25l33 -156l-226 29zM117 -125l-28 164l227 -30l36 -167zM349 117q26 -34 52 -67l-36 -4zM410 -159
l-37 168l57 7q11 -14 22.5 -27t16.5 -19l5 -5q22 25 55 64l66 8l44 -168zM622 148q27 36 53 75l160 -18l51 -161l-243 30zM699 -132l-46 169l245 -31l55 -173z" />
    <glyph glyph-name="uniE64F" unicode="&#xe64f;" 
d="M853 178q-63 0 -107.5 -45t-44.5 -108t44.5 -108t107.5 -45t108 45t45 108t-45 108t-108 45zM954 65q-110 -108 -110 -109q-15 -14 -25 -5l-65 66q-10 10 0.5 21t20.5 1l54 -54l104 102q10 10 21 -1t0 -21zM348 792h234q18 0 31.5 15.5t13.5 37t-13.5 36.5t-33.5 15h-232
q-19 0 -32.5 -15t-13.5 -36.5t13.5 -37t32.5 -15.5zM836 225q40 0 76 -16v513q0 54 -29.5 86.5t-86.5 32.5h-106q2 -10 2 -18q0 -33 -20.5 -59.5t-48.5 -26.5h-323q-29 0 -49.5 26.5t-20.5 59.5q0 9 1 18h-106q-60 0 -83.5 -30.5t-23.5 -88.5v-696q0 -58 26.5 -87.5
t86.5 -29.5h557q-44 53 -44 123q0 80 56 136.5t136 56.5zM243 576h456q12 0 21.5 -10t10.5 -23q0 -13 -11 -24.5t-24 -11.5h-457q-12 0 -19.5 11t-7.5 25q0 13 9 23t22 10zM448 118h-209q-12 0 -19.5 10.5t-7.5 24.5q0 13 9 23.5t22 10.5h207q13 0 22.5 -10t10.5 -24
q0 -13 -11 -24t-24 -11zM237 310q-12 0 -22.5 12t-10.5 25t9 22t22 9h456q12 0 21.5 -8.5t10.5 -22.5q0 -13 -8.5 -25t-19.5 -12h-458zM237 310z" />
    <glyph glyph-name="uniE650" unicode="&#xe650;" 
d="M512 174l-407 407l-91 -90l498 -498l498 498l-91 90z" />
    <glyph glyph-name="uniE652" unicode="&#xe652;" 
d="M861 448h-10q7 38 7 64q0 93 -46.5 170t-125.5 121.5t-174 44.5t-174 -44.5t-125.5 -121.5t-46.5 -170q0 -19 7 -64h-13q-41 0 -68.5 -27.5t-27.5 -68.5v-320q0 -41 27.5 -68.5t68.5 -27.5h701q41 0 68.5 27.5t27.5 68.5v320q0 41 -27.5 68.5t-68.5 27.5zM221 451
q-7 39 -7 61q0 122 86 205t209 83q122 0 208 -84t86 -204q0 -26 -6 -64h-32h-541zM909 32q0 -19 -14.5 -33.5t-33.5 -14.5h-701q-19 0 -33.5 14.5t-14.5 33.5v320q0 19 14.5 33.5t33.5 14.5h608h90q19 0 33.5 -14.5t14.5 -33.5v-320h3zM512 304q-10 0 -18 -7t-8 -19v-195
q0 -10 7.5 -17.5t18.5 -7.5q26 0 26 25v195q0 10 -8 18t-18 8z" />
    <glyph glyph-name="uniE655" unicode="&#xe655;" 
d="M891 641l-379 -383l-383 379l-63 -63l447 -443l442 446z" />
    <glyph glyph-name="uniE658" unicode="&#xe658;" horiz-adv-x="1872" 
d="M951 525zM727 524.5q0 92.5 66 158.5t158.5 66t158 -66t65.5 -158.5t-65.5 -158t-158 -65.5t-158.5 65.5t-66 158zM1335 -83q0 104 -51.5 192.5t-139.5 140t-192.5 51.5t-193 -51.5t-140 -140t-51.5 -192.5h768z" />
    <glyph glyph-name="uniE65A" unicode="&#xe65a;" 
d="M384.5 681q79.5 0 135.5 -56t56 -135.5t-56 -135.5t-135.5 -56t-135.5 56t-56 135.5t56 135.5t135.5 56zM384 745q-105 0 -180 -75t-75 -180.5t75 -180.5t180.5 -75t180.5 75t75 180.5t-75 180.5t-181 75zM384.5 234q64.5 0 124.5 -25q57 -24 101 -68t68 -101
q25 -60 25 -124q0 -27 -18.5 -45.5t-44.5 -18.5h-511q-26 0 -44.5 18.5t-18.5 45.5q0 64 25 124q24 57 68 101t101 68q60 25 124.5 25zM384 298q-104 0 -192 -51t-139 -139t-51 -192q0 -53 37.5 -90.5t89.5 -37.5h511q52 0 89.5 37.5t37.5 90.5q0 104 -51 192t-139.5 139
t-192.5 51zM775 341q55 34 87.5 91.5t32.5 124.5q0 106 -75 180.5t-180 74.5q-87 0 -156 -53q34 -13 64 -34q43 23 92 23q79 0 135 -56t56 -135t-56 -135q-55 -55 -132 -56q-17 -36 -44 -67q20 3 41 3q64 0 124 -25q57 -24 101 -68.5t68 -101.5q25 -59 25 -124
q0 -26 -18.5 -45t-44.5 -19h-96v-3q0 -32 -12 -61h108q52 0 89.5 37.5t37.5 90.5q0 121 -68.5 218.5t-178.5 139.5z" />
    <glyph glyph-name="uniE65B" unicode="&#xe65b;" horiz-adv-x="1102" 
d="M921 1152v0v0v0zM1010 566l-60 60l-395 -395l-396 397l-61 -61l457 -456z" />
    <glyph glyph-name="uniE65C" unicode="&#xe65c;" 
d="M1022 710q-3 14 -15 22.5t-26 5.5l-101 -34q-12 -3 -20 -12.5t-8 -22.5v-142h-815q-21 0 -31 -19t2 -37l196 -284q10 -15 29 -15h577v-79h-490h-1h-3q-47 0 -80 -33.5t-33 -81t33 -81.5t79.5 -34t79.5 34t33 81q0 24 -8 45h291q-9 -21 -9 -45q0 -47 33 -81t79.5 -34
t79.5 34t33 81q0 59 -46 94l-1 100h7q15 0 25 10t10 25v284v3v3v143l72 29q14 2 22.5 14.5t5.5 26.5zM315.5 -66q-17.5 0 -29.5 13t-12 31.5t12 31.5t29.5 13t30 -13t12.5 -31.5t-12.5 -31.5t-30 -13zM814.5 -66q-17.5 0 -29.5 13t-12 31.5t12 31.5t29.5 13t30 -13
t12.5 -31.5t-12.5 -31.5t-30 -13zM104 456h748v-214h-601z" />
    <glyph glyph-name="uniE65F" unicode="&#xe65f;" horiz-adv-x="1102" 
d="M0 751v0v0v0zM586 839l-60 -60l395 -394l-397 -397l61 -60l456 456z" />
    <glyph glyph-name="uniE661" unicode="&#xe661;" 
d="M727 341q-16 3 -20.5 9.5t-0.5 11.5l3 4q1 3 3 7t6 15.5t4.5 22.5t-4.5 25.5t-16 25.5q-14 14 -37 18.5t-46 1t-44 -9t-33 -11.5l-13 -5q-10 -3 -17 -4.5t-10.5 0t-5.5 3.5t-2 7.5t1 9t3 12.5t3 14q0 15 -2.5 27.5t-11 27t-23 22t-41 7t-62.5 -12.5q-35 -12 -71.5 -36
t-64 -49.5t-50 -49.5t-34.5 -40l-12 -15q-33 -44 -48.5 -87.5t-16.5 -65t0 -21.5q6 -48 30 -86.5t57 -62t78.5 -40t86.5 -24.5t88 -11q76 -6 157 11.5t151 61t99 103.5q17 36 17.5 67t-10.5 51t-29.5 35t-34 22t-27.5 9zM415 28q-110 -5 -188 42.5t-78 119.5t77.5 124
t188.5 57q112 5 188.5 -37t76.5 -113q0 -73 -78 -130.5t-187 -62.5zM385 307q-30 -3 -53.5 -13.5t-37 -23.5t-22.5 -30t-12.5 -30.5t-4.5 -28t-0.5 -19.5t0.5 -8v-5q0 -3 2 -11.5t5.5 -16.5t12 -17t19.5 -15q67 -32 126 -19.5t94 58.5q14 17 18.5 42t-2 50.5t-22.5 47
t-48.5 33t-74.5 6.5zM348 116q-20 -2 -35 8t-15 27q0 18 14 32.5t34 16.5q23 2 37.5 -9t14.5 -29q0 -16 -14.5 -30t-35.5 -16zM435 189q-7 -5 -14.5 -4.5t-11.5 6.5t-2 14.5t9 13.5q8 6 15.5 5t11.5 -7q3 -7 1 -15t-9 -13zM798 400q9 0 16 6t8 14v3q4 32 -1 57t-16.5 39
t-26.5 23t-30.5 11.5t-28.5 3t-21 -0.5l-8 -1q-10 0 -17 -7t-7 -17t7 -17t17 -7q32 6 50.5 0.5t26 -19.5t9 -28t0.5 -25l-2 -11q0 -10 7 -17t17 -7zM781 679q-51 12 -121 -1l-2 -1l-1 -1h-1q-11 -3 -18.5 -12.5t-7.5 -21.5q0 -14 10.5 -24.5t25.5 -10.5q18 3 31 8
q6 0 18.5 1.5t33.5 -3.5t42 -13t43 -26.5t37 -43.5q28 -60 11 -115q-7 -17 -7 -34q0 -14 10 -22.5t25 -8.5t23 5.5t11 23.5q19 57 14.5 102.5t-20 79t-43.5 58t-56 39t-58 21.5zM781 679z" />
    <glyph glyph-name="uniE665" unicode="&#xe665;" 
d="M869 633h-720q-35 0 -59 -24.5t-24 -59.5v-498q0 -35 24 -59.5t59 -24.5h720q35 0 59 24.5t24 59.5v498q0 35 -24 59.5t-59 24.5zM141 23l-20 20l229 229l20 -20zM876 23l-228 229l20 20l229 -229zM537 208v-19h-56v19l-360 334l35 35l353 -327l353 327l35 -35z" />
    <glyph glyph-name="uniE669" unicode="&#xe669;" 
d="M96 224l416 416l416 -416l-64 -63l-352 352l-352 -352z" />
    <glyph glyph-name="uniE66A" unicode="&#xe66a;" 
d="M512 832q-122 0 -225 -60t-163 -163t-60 -225t60 -225t163 -163t225 -60t225 60t163 163t60 225t-60 225t-163 163t-225 60zM690 418v-95h-126v-33h126v-95h-126v-91h-93v91h-122v95h122v33h-122v95h72l-120 219h108l103 -189l103 189h108l-120 -219h87z" />
    <glyph glyph-name="uniE66B" unicode="&#xe66b;" 
d="M512 -127q-116 0 -214 57.5t-155.5 155.5t-57.5 214t57.5 214t155.5 155.5t214 57.5t214 -57.5t155.5 -155.5t57.5 -214t-57.5 -214t-155.5 -155.5t-214 -57.5zM512 641q-93 0 -171.5 -45.5t-124 -124t-45.5 -171.5t45.5 -171.5t124 -124t171.5 -45.5t171.5 45.5t124 124
t45.5 171.5q0 72 -18.5 130t-49 93t-66.5 60t-72.5 36t-66.5 16.5t-49 6t-19 -0.5zM555 172v-85h-86v85h-128v85h128v43h-128v85h128l-91 90q-6 7 -6 16t6 15l16 16q6 6 15 6t16 -6l87 -94l88 94q6 6 15 6t16 -6l15 -16q6 -6 6 -15t-6 -16l-91 -90h128v-85h-128v-43h128v-85
h-128z" />
    <glyph glyph-name="uniE66C" unicode="&#xe66c;" 
d="M63 105l55 -56l392 404l393 -404l54 56l-447 460zM63 105z" />
    <glyph glyph-name="uniE66E" unicode="&#xe66e;" 
d="M854 -124h-684v371h57v-314h570v314h57v-371zM919 256l-407 434l-407 -434l-42 39l449 479l449 -479zM626 47h-57v200h-114v-200h-57v257h228v-257z" />
    <glyph glyph-name="uniE671" unicode="&#xe671;" horiz-adv-x="1182" 
d="M872 750q13 0 20 -2q88 -8 153 -83t74 -190v-62q-8 -120 -116.5 -241t-380.5 -312q-14 -10 -31.5 -10.5t-30.5 9.5q-270 190 -378.5 311.5t-119.5 244.5v62q9 113 73 187t151 84q18 3 47 3q74 0 121.5 -26t112.5 -99l25 -27l23 28q58 70 107.5 97t126.5 27v61
q-92 0 -154 -33t-128 -114l47 1q-74 83 -133 114.5t-148 31.5q-34 0 -55 -3q-109 -13 -188 -103.5t-90 -225.5v-67q12 -142 126.5 -273.5t396.5 -329.5q28 -22 66 -22t69 22q285 200 399.5 331t123.5 269l1 67q-12 139 -92 231t-189 101l-2 -31l6 30q-13 3 -30 4h-26v-61
q15 0 23 -1z" />
    <glyph glyph-name="uniE674" unicode="&#xe674;" 
d="M508 696q70 0 133.5 -47.5t63.5 -93.5v-141q0 -50 -21 -112t-62 -94q-25 -20 -21 -51.5t32 -44.5l246 -116h2q2 -1 3.5 -2t4.5 -2.5t5 -4t4 -6t3 -9t1 -11.5v-55h-789v57q0 22 23 33l248 117q29 13 32.5 44t-20.5 51q-40 32 -63 94.5t-23 111.5v141q0 45 64 93t134 48z
M508 752q-61 0 -120.5 -29.5t-97 -76t-37.5 -91.5v-141q0 -58 27 -132.5t81 -117.5l-248 -117q-7 -3 -16 -8t-25 -19.5t-16 -28.5v-85q0 -23 16.5 -39.5t40.5 -16.5h789q24 0 40.5 16.5t16.5 39.5v85q0 14 -14 28.5t-28 20.5l-15 7l-245 117q53 41 78.5 114t25.5 136v141
q0 45 -37 91.5t-96.5 76t-119.5 29.5z" />
    <glyph glyph-name="uniE675" unicode="&#xe675;" 
d="M768 -212h-512q-24 0 -44 20t-20 44v896q0 23 20.5 43.5t43.5 20.5h512q25 0 44.5 -19.5t19.5 -44.5v-896q0 -25 -19.5 -44.5t-44.5 -19.5zM512 -84q13 0 22.5 9.5t9.5 22.5t-9.5 22.5t-22.5 9.5t-22.5 -9.5t-9.5 -22.5t9.5 -22.5t22.5 -9.5zM768 684h-512v-640h512v640z
" />
    <glyph glyph-name="uniE67A" unicode="&#xe67a;" 
d="M952 692q9 9 9 22.5t-9 22.5l-2 1q-9 10 -22.5 10t-22.5 -10l-370 -369q-9 -10 -22.5 -10t-22.5 10l-370 369q-9 10 -22.5 10t-22.5 -10l-1 -1q-10 -9 -10 -22.5t10 -22.5l369 -370q10 -9 10 -22.5t-10 -22.5l-369 -370q-10 -9 -10 -22.5t10 -22.5l1 -2q9 -9 22.5 -9
t22.5 9l370 370q9 9 22.5 9t22.5 -9l370 -370q9 -9 22.5 -9t22.5 9l2 2q9 9 9 22.5t-9 22.5l-370 370q-9 9 -9 22.5t9 22.5z" />
    <glyph glyph-name="uniE67E" unicode="&#xe67e;" 
d="M838 -58h-652q-48 0 -82 33t-34 76l7 608q0 48 34 78.5t87 30.5h122v26q0 10 9 17.5t23 7.5t23 -7.5t9 -17.5v-26h294v26q0 10 9.5 17.5t23 7.5t22.5 -7.5t9 -17.5v-26h122q47 0 81 -32.5t34 -76.5l-6 -608q-15 -49 -51 -79t-84 -30zM896 659q0 24 -17 41t-41 17h-121
v-26q0 -10 -9 -17.5t-23 -7.5t-23 7.5t-9 17.5v26h-295v-26q0 -10 -9 -17.5t-23 -7.5q-3 -3 -7.5 -1t-8 9.5t-3.5 16.5v26h-121q-24 0 -41 -16t-17 -35v-58l768 -6v57zM896 550h-768v-499q0 -19 17 -35t41 -16l652 -6q24 0 41 16.5t17 40.5v499zM774 51h-57q-24 0 -41 17
t-17 41v57q0 24 17 41t41 17h57q24 0 41 -17t17 -41v-57q5 -24 -12 -41t-46 -17zM774 160h-57v-58h57v58zM781 275h-58q-24 0 -40.5 17t-16.5 41v57q0 24 16.5 41t40.5 17h58q24 0 40.5 -17t16.5 -41v-57q0 -28 -16 -43t-41 -15zM781 384h-58v-58h58v58zM538 51h-58
q-24 0 -41 17t-17 41v57q0 24 17 41t41 17h58q24 0 40.5 -17t16.5 -41v-57q5 -23 -13.5 -40.5t-43.5 -17.5zM538 166h-58v-57h58v57zM544 275h-58q-28 0 -46 16.5t-18 41.5v57q0 24 17 41t41 17h58q28 -5 46 -22.5t18 -41.5v-58q0 -19 -17.5 -35t-40.5 -16zM544 384h-64v-58
h58zM301 58h-58q-24 0 -40.5 16.5t-16.5 40.5v58q0 24 16.5 40.5t40.5 16.5h58q24 0 40.5 -16.5t16.5 -40.5v-58q5 -28 -13.5 -45t-43.5 -12zM301 166h-58v-57h58v57zM307 275h-57q-24 0 -41 17t-17 41v57q0 24 17 41t41 17h57q24 0 41 -17t17 -41v-57q0 -24 -17 -41
t-41 -17zM307 384h-64v-58h58zM307 384z" />
    <glyph glyph-name="uniE680" unicode="&#xe680;" 
d="M590 213q0 36 19.5 86t43.5 91t43.5 84.5t19.5 67.5q0 59 -42.5 101.5t-102 42.5t-101.5 -42.5t-42 -101.5q0 -26 19.5 -70t43 -84t43 -89.5t19.5 -85.5h37zM509 542q0 26 18.5 44.5t44.5 18.5t44.5 -18.5t18.5 -44.5t-18.5 -45t-44.5 -19t-44.5 19t-18.5 45zM747 612
q12 -29 13 -60l81 40v-554l-122 -61l-35 15q-30 165 -172 165q-5 0 -16 -4.5t-18.5 -4.5t-25.5 7q-16 10 -28.5 30t-19 37.5t-25 31.5t-47.5 16q-58 58 -149 61v267l126 -54q11 -5 23 -5q15 0 27 7l25 12q3 43 25 80l-77 -39l-209 90v-359v-329l209 -90l180 90l179 -77
l30 -13l180 90v688z" />
    <glyph glyph-name="uniE681" unicode="&#xe681;" 
d="M512 158q58 0 130.5 27t129.5 63.5t98.5 71.5t47.5 53q-2 20 -40 58.5t-93.5 78.5t-131 69.5t-141.5 29.5q-64 0 -138 -24.5t-132 -60t-96.5 -77.5t-38.5 -75q1 -17 39.5 -52t95 -71.5t131.5 -63.5t139 -27zM512 113q-67 0 -149 29t-147 69.5t-110 85.5t-45 75
q0 63 73.5 129.5t180 109.5t197.5 43q73 0 156.5 -32.5t146.5 -77.5t105.5 -93t42.5 -79q0 -26 -45.5 -70t-111 -86t-147.5 -72.5t-147 -30.5v0zM512 113zM512.5 270q46.5 0 79.5 33.5t33 80t-33 79.5t-79.5 33t-79.5 -33t-33 -79.5t33 -80t79.5 -33.5zM512 225
q-65 0 -111 46.5t-46 112t46 111.5t111.5 46t111.5 -46t46 -111.5t-46 -112t-112 -46.5v0zM512 225z" />
    <glyph glyph-name="uniE691" unicode="&#xe691;" horiz-adv-x="1152" 
d="M768 41v53q54 31 91 98t37 140q0 45 -0.5 67t-4 59t-10.5 55t-21 42.5t-34 36t-51 20t-71 8.5t-71 -8.5t-51 -20t-34 -36t-21 -42.5t-10.5 -55t-4 -59t-0.5 -67q0 -73 37 -140t91 -98v-53q-107 -8 -195 -43.5t-138.5 -91t-50.5 -118.5h896q0 63 -50.5 118.5t-138.5 91
t-195 43.5zM327 17q84 54 200 80q-23 27 -41 59q-46 85 -46 176q0 57 1 87t8 73t22 74q44 97 159 119q-14 62 -55.5 94.5t-126.5 32.5q-40 0 -71 -8.5t-51 -20t-34 -36t-21 -42.5t-10.5 -55t-4 -59t-0.5 -67q0 -73 37 -140t91 -98v-53q-107 -8 -195 -43.5t-138.5 -91
t-50.5 -118.5h279q22 20 48 37z" />
    <glyph glyph-name="uniE695" unicode="&#xe695;" 
d="M507 550q19 0 30.5 11.5t11.5 30.5t-11.5 30.5t-30.5 11.5q-20 0 -35.5 -11.5t-15.5 -30t15.5 -30.5t35.5 -12zM507 550zM271 634q-20 0 -35.5 -11.5t-15.5 -30t15.5 -30.5t35.5 -12q19 0 30.5 11.5t11.5 30.5t-11.5 30.5t-30.5 11.5zM271 634zM1011 281q0 99 -80.5 174
t-195.5 84q1 3 0 5q-22 106 -123.5 177.5t-230.5 71.5q-96 0 -177 -40.5t-128 -110t-47 -151.5q0 -136 131 -233l-30 -91q-3 -9 5 -16q4 -4 10 -4q4 0 7 2l113 56l14 -2q65 -14 102 -14q9 0 25 2.5t18 4.5q31 -77 109 -126t176 -49q36 0 99 16l87 -48q4 -2 8 -2q5 0 9 3
q8 7 5 17l-22 74q116 91 116 200zM410 230q-15 -1 -29 -1q-33 0 -93 12l-18 4q-5 1 -10 -1l-81 -41l21 64q3 10 -6 16q-123 87 -123 208q0 108 90.5 184.5t219.5 76.5q113 0 202.5 -61t109.5 -153q-119 -2 -202.5 -75t-83.5 -176q0 -28 8 -57h-5zM860 107q-8 -6 -5 -16
l14 -45l-57 31q-3 1 -7 1h-3q-62 -16 -93 -16q-106 0 -182 64t-76 154t76 154t182 64q105 0 181.5 -64.5t76.5 -153.5q0 -93 -107 -173v0zM868 99zM616 390q-12 0 -22.5 -10.5t-10.5 -23t10.5 -23t22.5 -10.5q19 0 30.5 10t11.5 23t-11.5 23.5t-30.5 10.5zM616 390zM802 390
q-13 0 -23.5 -10.5t-10.5 -23t10.5 -23t23.5 -10.5q18 0 30 10t12 23t-12 23.5t-30 10.5zM802 390z" />
    <glyph glyph-name="uniE699" unicode="&#xe699;" 
d="M990 323l-375 375q-43 43 -103 43t-103 -43l-375 -375q-9 -9 -9 -22.5t9.5 -23t22.5 -9.5t22 10l98 98v-399q0 -49 34.5 -83t83.5 -34h434q49 0 83.5 34t34.5 83v399l98 -98q9 -10 22 -10t22.5 9.5t9.5 23t-9 22.5zM783 -23q0 -22 -16 -37.5t-38 -15.5h-434
q-22 0 -38 15.5t-16 37.5v463l214 213q23 24 57 24t57 -24l214 -213v-463z" />
    <glyph glyph-name="uniE69D" unicode="&#xe69d;" 
d="M69 438h886v-224h-886v224z" />
    <glyph glyph-name="uniE69F" unicode="&#xe69f;" 
d="M512 -148q-185 0 -316.5 131.5t-131.5 316.5t131.5 316.5t316.5 131.5t316.5 -131.5t131.5 -316.5t-131.5 -316.5t-316.5 -131.5zM512 684q-104 0 -192.5 -51.5t-140 -140t-51.5 -192.5t51.5 -192.5t140 -140t192.5 -51.5t192.5 51.5t140 140t51.5 192.5t-51.5 192.5
t-140 140t-192.5 51.5zM557 299l138 136q10 10 10 23t-9.5 22.5t-22.5 9.5t-23 -9l-138 -137l-137 137q-9 9 -22 9t-22.5 -9t-9.5 -22.5t9 -22.5l136 -137l-137 -136q-9 -9 -9.5 -22.5t9 -23t22.5 -9.5q14 0 23 10l138 136l138 -140q10 -9 23 -9t22.5 9.5t9.5 22.5t-9 23z
" />
    <glyph glyph-name="uniE6A5" unicode="&#xe6a5;" 
d="M1013 388h-413v412h-175v-412h-413v-175h413v-413h175v413h413v175z" />
    <glyph glyph-name="uniE6C2" unicode="&#xe6c2;" 
d="M874 746q-72 73 -165.5 111.5t-196 38.5t-196 -38.5t-166 -111t-111.5 -166t-39 -196.5t38.5 -196.5t111.5 -166t166 -111t196 -38.5t196.5 38.5t165.5 111.5q98 98 133 230t0 264t-133 230v0zM827 69q-63 -63 -144.5 -96.5t-170.5 -33.5t-170.5 33.5t-144.5 96.5
t-96.5 144.5t-33.5 170.5t33.5 170.5t96.5 144.5t144.5 96.5t170.5 33.5t170.5 -33.5t144.5 -96.5q85 -86 115.5 -200.5t0 -229t-115.5 -200.5v0zM733 259l-177 102v279q0 18 -12.5 30.5t-30 12.5t-30 -12.5t-12.5 -30.5v-299q0 -17 33 -36q2 -4 19 -14l176 -106
q15 -9 30 -4.5t24 19.5q8 16 2 32.5t-22 26.5v0zM733 259z" />
    <glyph glyph-name="uniE6C5" unicode="&#xe6c5;" 
d="M956 853h-888q-28 0 -48 -19.5t-20 -47.5v-704q0 -27 20 -47t48 -20h340l104 -100l102 100h342q28 0 48 20t20 47v704q0 28 -20 47.5t-48 19.5zM256 367q-28 0 -48 19.5t-20 47.5t20 47.5t48 19.5t48 -19.5t20 -47.5t-20 -47.5t-48 -19.5zM512 367q-28 0 -48 19.5
t-20 47.5t20 47.5t48 19.5t48 -19.5t20 -47.5t-20 -47.5t-48 -19.5zM785 367q-28 0 -48.5 19.5t-20.5 47.5t20.5 47.5t48.5 19.5t48 -19.5t20 -47.5t-20 -47.5t-48 -19.5z" />
    <glyph glyph-name="uniE6CE" unicode="&#xe6ce;" 
d="M582 281q49 19 79 63t30 97q0 76 -53 127.5t-126 51.5t-126 -51.5t-53 -127.5q0 -53 30 -97t79 -63q-107 -24 -175.5 -107.5t-68.5 -193.5v-51q0 -5 4 -9t9 -4h608q5 0 9 4t4 9v51q-5 110 -74.5 193.5t-175.5 107.5zM378 441q0 56 40 95t94 39t94 -39t40 -95
q0 -58 -38 -96.5t-96 -38.5q-57 0 -95.5 40.5t-38.5 94.5zM781 -39h-538v19q0 110 79.5 189.5t189.5 79.5t189.5 -79.5t79.5 -189.5v-19zM243 249q27 3 37.5 16t6 27t-17.5 21q-64 32 -64 96q0 38 24.5 67t58.5 29q12 6 14 17t-2.5 19.5t-11.5 8.5q-52 0 -87 -40.5
t-35 -94.5q0 -38 17.5 -69.5t46.5 -45.5q-72 -19 -119 -81t-47 -143q0 -45 6 -64q10 -13 25 -8t20 21q-6 19 -6 51q0 71 40.5 122t93.5 51zM800 287q29 20 46.5 51t17.5 64q0 57 -36.5 96t-85.5 39q-6 0 -11 -8.5t-2.5 -19.5t13.5 -17q34 0 59 -29t25 -67q0 -64 -64 -96
q-12 -5 -18.5 -14.5t-6 -19t11.5 -17t32 -7.5q57 0 99 -52t42 -120q0 -39 -7 -52q5 -15 20 -20.5t25 8.5q6 19 6 64q-4 86 -51 147t-115 70z" />
    <glyph glyph-name="uniE6FB" unicode="&#xe6fb;" 
d="M19 634v-668h986v668h-986zM877 570l-366 -282l-366 282h732zM83 30v507l428 -329l430 331v-509h-858z" />
    <glyph glyph-name="uniE70C" unicode="&#xe70c;" horiz-adv-x="1107" 
d="M-13 749l-1 17l-2 -17l1 -8v-18v-1q0 -6 1 -6v6v1v18zM-14 762v-13v-13l-1 13zM-14 725q0 -5 -0.5 -5t-0.5 5v14l1 -7v7v-14zM-14 725zM593.5 496q46.5 0 79 -33t32.5 -79q0 -47 -32 -80t-78 -33q-47 0 -80.5 33.5t-33.5 79.5t33 79t79.5 33zM595 551q-70 0 -119.5 -49.5
t-49.5 -119t49.5 -118.5t119 -49t119 49t49.5 118.5t-49.5 119t-118.5 49.5v0zM595 551zM593 637q124 0 229.5 -66t160.5 -188q-55 -122 -161 -187t-230 -65t-230.5 65t-161.5 187q55 122 162 188t231 66zM593 693q-143 0 -265.5 -78.5t-182.5 -215.5v-1v-2h-1v-1v-3
q0 -1 -1 -1q-1 -5 -1 -7.5t1 -7.5q1 -1 1 -2v-3v-1h1v-1v-2q60 -137 181.5 -214.5t265 -77.5t265 77.5t181.5 214.5v1v2l1 1q0 1 1 3v1q1 5 1 8t-1 8v1q-1 2 -1 3l-1 1v2v1q-60 138 -181 216t-264 78v0zM593 693z" />
    <glyph glyph-name="uniE710" unicode="&#xe710;" 
d="M260 433v-563h-84v563h-99v81h99v219h84v-219h96v-81h-96zM869 102q-15 116 -57 262q-7 -226 -16.5 -319.5t-30.5 -120.5q-13 -20 -29.5 -29t-41.5 -13q-36 -5 -128 -1q-4 48 -27 84q64 -5 116 -5q24 0 36 15q17 21 25.5 130t14.5 368h-111q-3 -65 -9.5 -121.5
t-23.5 -124.5t-44 -126.5t-73 -120t-107 -112.5q-11 15 -31 33t-36 28q56 46 99 101t68.5 108t42 114t22.5 112t9 109h-156v85h157v167h82v-167h195v-42q0 -28 -1.5 -76t-1.5 -66l69 14q48 -157 65 -266zM464 374q-35 -164 -98 -258q-37 28 -67 44q61 87 86 230z" />
    <glyph glyph-name="uniE71B" unicode="&#xe71b;" horiz-adv-x="1025" 
d="M785 -106q-17 0 -33 8l-240 126l-240 -126q-39 -21 -74.5 5t-27.5 69l46 267l-195 190q-31 30 -17 72q6 19 21 32t35 16l269 39l120 243q9 18 26 28.5t37 10.5t37 -10.5t26 -28.5l108 -218q6 -12 1.5 -24.5t-16.5 -18.5t-24.5 -1.5t-18.5 16.5l-107 218q-2 3 -6 3t-6 -3
l-127 -259q-8 -15 -24 -17l-285 -41q-4 -1 -5.5 -5t1.5 -6l206 -201q12 -12 9 -29l-48 -284q-1 -4 2 -6t7 -1l255 135q15 7 30 0l255 -135q4 -1 7 1t2 6l-48 284q-3 17 9 29l206 201q3 3 1.5 6.5t-5.5 4.5l-192 28q-13 1 -21 12t-6.5 24t12.5 21t24 6l193 -28q20 -3 35 -16
t22 -32q13 -42 -18 -72l-195 -190l46 -267q8 -43 -28 -69q-18 -13 -41 -13z" />
    <glyph glyph-name="uniE72C" unicode="&#xe72c;" 
d="M512 840q-97 0 -179.5 -47.5t-130.5 -130t-48 -180.5q0 -69 44.5 -168.5t103.5 -183t119 -143t91 -59.5t91 59.5t119 143t103.5 183t44.5 168.5q0 98 -48 180.5t-130.5 130t-179.5 47.5zM512 302q-75 0 -127.5 53t-52.5 127.5t52.5 127t127.5 52.5t127.5 -52.5t52.5 -127
t-52.5 -127.5t-127.5 -53z" />
    <glyph glyph-name="uniE747" unicode="&#xe747;" 
d="M832 224zM1024 161q0 33 -16.5 66.5t-56.5 55.5q-34 20 -87 -27l-32 -32v-191h128q36 0 50 14.5t14 49.5v64zM194 224zM75 283q-40 -22 -56.5 -55.5t-16.5 -66.5v-3v-8v-10v-11v-12v-11v-6v-3q0 -35 14 -49.5t50 -14.5h128v191l-32 32q-53 47 -87 27zM832 353
q27 0 61.5 28t34.5 74v51q0 48 -29 75t-67 27q-36 0 -65.5 -27t-29.5 -75v-51q0 -46 35 -74t60 -28zM767 225v1q-1 9 -4 18q-5 19 -17 36q-23 32 -69 57q-26 15 -36 15q-12 0 -24 -8t-35 -29l-24 -22l-2 -3q-2 -3 -5.5 -7t-8 -8.5t-9.5 -8.5t-10.5 -7t-10 -3t-9.5 3t-10 7
t-9.5 8.5t-8 8.5t-5.5 7l-2 3l-24 22q-23 21 -35 29t-24 8q-13 0 -37 -15q-49 -31 -68 -57v0q-12 -17 -17 -36h-1q-2 -9 -3 -18v-1q-1 -11 -1 -20v-140q0 -34 14.5 -49t49.5 -15h382q36 0 50 14.5t14 49.5v70v70q0 10 -1 20zM194 353q27 0 61.5 28t34.5 74v51q0 48 -29 75
t-67 27q-37 0 -66.5 -27t-29.5 -75v-51q0 -46 35 -74t61 -28zM513 384q66 0 112.5 57.5t46.5 131.5v30q0 71 -45.5 117.5t-113.5 46.5t-113.5 -46.5t-45.5 -117.5v-30q0 -74 46.5 -131.5t112.5 -57.5z" />
    <glyph glyph-name="uniE772" unicode="&#xe772;" 
d="M403 140q6 -9 17 -20t20 -18l8 -7q3 43 -2 83t-11 59l-6 18q-9 -11 -15.5 -41t-8.5 -50t-2 -24zM870 223q27 22 49.5 56.5t35.5 67t22 64.5t12 49t3 19q3 14 11 41.5t14 47.5l7 20q-15 0 -31 -2t-29.5 -5t-27.5 -7.5t-24.5 -8.5t-22 -9t-17.5 -8.5t-13 -7t-8 -3.5
q13 44 19 96q-26 5 -52 1t-42.5 -7.5t-34 -13t-26 -15t-18.5 -13.5t-12 -10q-20 29 -45.5 53t-41.5 33l-16 10q-20 14 -37.5 35t-24.5 35l-8 13q3 -14 -22.5 -41t-52.5 -47l-27 -20q-35 -18 -71 -77l-1 1q-70 75 -184 63q12 -51 19 -96q-23 15 -73 33t-100 18
q26 -77 32 -109q1 -7 3.5 -19.5t12 -47.5t22 -66t35 -66t49.5 -57q-6 3 -23 3.5t-39.5 -3t-48 -18.5t-43.5 -39q4 -4 12 -10t33.5 -22.5t53 -29.5t68.5 -25t83 -16h-7q-2 -3 -4.5 -8.5t-4 -22t4 -32t28 -35.5t59.5 -36q167 -51 192 -64q45 19 186 64q2 0 5 1.5t11.5 6
t17 9.5t19 13t19 16.5t16.5 20t11.5 23.5t3 27t-6.5 30h-6q37 7 73.5 20.5t61 27t44 26.5t29.5 20l9 8q-13 20 -35 32t-43 15t-37.5 2t-25.5 -4zM934 511q-2 -3 -7 -22t-8 -37l-4 -18q3 -25 -5 -57t-17 -51l-10 -20q-12 -25 -32.5 -46t-41 -33t-38.5 -20.5t-30 -12.5l-11 -3
h-20q66 73 116 256q22 31 49.5 47t43.5 17h15zM794 562q-20 -160 -45 -204q6 12 0 51v0q-18 70 -32 109q0 10 14 26q22 26 63 18zM301 518q-23 -54 -31 -94t-5 -53l4 -13q-12 20 -23 71t-16 92l-6 41q21 4 35 1t22.5 -10.5t12.5 -15.5t6 -14zM134 306q-4 8 -10 21.5
t-15 47.5t-7 59q-6 71 -19 77q2 -1 7.5 0t18.5 -2.5t26.5 -9.5t31 -21.5t31.5 -36.5q45 -179 122 -256q-2 0 -13.5 3t-18.5 3l-4 2q-111 37 -150 113zM819 114q-71 -28 -141 7q-2 -3 -4 -6.5t-4 -9t-4 -10.5h10q6 0 21.5 -3t26.5 -10t17.5 -23.5t0.5 -40.5l-96 -102h-19
q-51 13 -109 13q-28 0 -55 -3.5t-40 -6.5l-13 -3h-26l-102 102q-6 25 0 42.5t18.5 24t25.5 9.5t23 2l9 -1q-1 4 -4 9l-4 8q-2 2 -3 6.5t-1 8.5q-13 -8 -31.5 -14.5t-51 -9t-65.5 10.5l-128 58q5 4 13.5 10t38 13.5t64.5 2.5q0 -1 12.5 -7.5t23 -11t21.5 -7.5q71 -26 103 -38
q-7 12 -7 19l13 57q-4 8 -10 21.5t-16.5 53.5t-11.5 78t15.5 88.5t54.5 91.5q1 2 3.5 5.5t12.5 13.5t24 20t39 24t55 27q4 -1 10.5 -3.5t26 -12t38.5 -22t44.5 -35t47.5 -49.5q3 -4 8 -12t15.5 -36.5t14 -60.5t-3 -84t-28.5 -108l13 -64v-12l90 32q11 2 21.5 6.5t22.5 11.5
t13 7q31 3 58.5 -3.5t38.5 -14.5l12 -7zM672 281l6 -51q13 51 13 89q-1 3 0 15.5t-2.5 39t-8.5 53.5t-19 57.5t-34 52.5l-16 16q-10 10 -40.5 27.5t-58.5 20.5q-4 -1 -11 -3t-26.5 -10t-36 -17.5t-34 -25.5t-26.5 -34q-4 -4 -8.5 -13t-15.5 -38t-17 -59.5t-5 -77.5t14 -93
l6 51q4 27 13 44.5t19.5 24t20.5 8.5t17 1l7 -1q23 7 36 20t15.5 27t1.5 26.5t-5 20.5l-3 8q-9 11 -9 19t4 11l5 2q-3 22 0.5 37.5t11 22t14 8.5t12.5 2q52 0 45 -70q2 -1 4.5 -2.5t3 -10t-7.5 -19.5q-2 -3 -4 -8t-5 -18.5t-1.5 -26t12 -26.5t30.5 -23q3 0 7.5 0.5t17.5 -2
t23.5 -9.5t20.5 -24t14 -42zM582 95q39 26 45 45q-6 90 -19 115q-4 0 -11 -17.5t-12.5 -56.5t-2.5 -86z" />
    <glyph glyph-name="uniE7B5" unicode="&#xe7b5;" 
d="M710 -46q59 0 105 21q113 50 125 105q8 31 -22 67q-11 13 -25 28t-39.5 38.5t-53 38.5t-49.5 16q-18 -1 -31.5 -6t-20 -10.5t-17.5 -16.5q-25 -24 -44 -32q-30 -12 -57 -12h-2q-59 0 -119.5 40t-100.5 100.5t-40 119.5q-1 28 12 59q8 19 32 44q11 11 16.5 17.5t10.5 20
t6 30.5q-1 23 -16 50.5t-38.5 53t-38.5 39.5t-28 25q-36 30 -67 22q-55 -12 -105 -125q-22 -48 -21 -110q2 -122 53.5 -236.5t135 -198t198 -135t236.5 -53.5h5zM751 225q23 -1 63 -34.5t71 -71.5q16 -19 13 -30q0 -2 -1.5 -5t-8 -11t-16.5 -16t-29.5 -20t-45.5 -23
q-37 -17 -87 -17h-5q-111 2 -217.5 50.5t-185 127t-127 185t-50.5 217.5q-1 53 17 92q11 26 23 45.5t20 29.5t16 16.5t11 8t5 1.5q11 3 30 -13q38 -31 71.5 -71t34.5 -64q-1 -13 -4.5 -19t-16.5 -19q-30 -31 -41 -57q-16 -40 -15 -77q1 -69 46.5 -139.5t116 -116
t139.5 -47.5h3q36 0 74 16q26 11 57 41q13 13 19 16.5t20 4.5z" />
    <glyph glyph-name="uniE7DA" unicode="&#xe7da;" 
d="M914 9q0 -68 -41.5 -108t-110.5 -40h-500q-69 0 -110.5 40t-41.5 108q0 30 2 59t8 62.5t15 62t24.5 55.5t35.5 46.5t49 31t63 11.5q6 0 24.5 -12.5t42.5 -27.5t62 -27.5t76 -12.5t76 12.5t62 27.5t42.5 27.5t24.5 12.5q34 0 63 -11.5t49 -31t35.5 -46.5t24.5 -55.5
t15 -62t8 -62.5t2 -59zM731 519.5q0 -90.5 -64 -155t-155 -64.5t-155 64.5t-64 155t64 155t155 64.5t155 -64.5t64 -155z" />
    <glyph glyph-name="uniE7E9" unicode="&#xe7e9;" horiz-adv-x="1098" 
d="M339 384q-93 -3 -152 -73h-76q-47 0 -79 23t-32 68q0 201 71 201q3 0 24.5 -12t56 -24t67.5 -12q39 0 76 13q-2 -21 -2 -38q0 -79 46 -146zM951 20q0 -69 -42 -108.5t-111 -39.5h-499q-69 0 -111 39.5t-42 108.5q0 30 2 59t8 62.5t15.5 62t24.5 55.5t35 46.5t49 30.5
t64 11q6 0 24.5 -12t41.5 -27t61.5 -27.5t77 -12.5t77 12.5t61.5 27.5t41.5 27t24.5 12q35 0 64 -11t49 -30.5t35.5 -46.5t24.5 -55.5t15 -62t8 -62.5t2 -59zM366 749.5q0 -60.5 -43 -103.5t-103.5 -43t-103.5 43t-43 103.5t43 103.5t103.5 43t103.5 -43t43 -103.5zM768 530
q0 -91 -64.5 -155t-155 -64t-155 64t-64.5 155t64.5 155.5t155 64.5t155 -64.5t64.5 -155.5zM1097 402q0 -45 -32 -68t-79 -23h-76q-59 70 -152 73q47 67 47 146q0 17 -3 38q37 -13 76 -13q33 0 67.5 12t56 24t24.5 12q71 0 71 -201zM1024 749.5q0 -60.5 -43 -103.5
t-103.5 -43t-103.5 43t-43 103.5t43 103.5t103.5 43t103.5 -43t43 -103.5z" />
    <glyph glyph-name="uniE7F0" unicode="&#xe7f0;" 
d="M693 465q15 0 35 -2q-23 109 -127.5 181.5t-238.5 72.5q-98 0 -181 -40.5t-132 -111.5t-49 -156q0 -143 145 -245l-36 -109l127 64q6 -2 25 -5.5t27 -5t22.5 -4t26.5 -3t25 -0.5q16 0 34 1q-11 38 -11 76q0 119 89.5 203t218.5 84zM498 563q21 0 33.5 -12.5t12.5 -33
t-12.5 -33t-33.5 -12.5t-37.5 13t-16.5 32.5t16.5 32.5t37.5 13zM245 472q-22 0 -38.5 13t-16.5 32.5t16.5 32.5t38.5 13q20 0 32.5 -12.5t12.5 -33t-12.5 -33t-32.5 -12.5zM1024 182q0 71 -43 132t-113.5 96t-151.5 35q-129 0 -218.5 -77t-89.5 -186t89.5 -186t218.5 -77
q37 0 109 18l99 -54l-27 90q127 96 127 209zM616 228q-13 0 -24.5 11t-11.5 24.5t11.5 25t24.5 11.5q20 0 33 -11t13 -25.5t-13 -25t-33 -10.5zM815 228q-13 0 -24.5 11t-11.5 24.5t11.5 25t24.5 11.5q20 0 33 -11t13 -25.5t-13 -25t-33 -10.5z" />
    <glyph glyph-name="uF0007" unicode="&#xf0007;" 
d="M512 300q-139 0 -257 -51.5t-186.5 -140t-68.5 -192.5q0 -53 50 -90.5t121 -37.5h682q71 0 121 37.5t50 90.5q0 104 -68.5 192.5t-186.5 140t-257 51.5zM512 620zM256 620q0 106 75 181t181 75t181 -75t75 -181t-75 -181t-181 -75t-181 75t-75 181z" />
    <glyph glyph-name="uF0054" unicode="&#xf0054;" 
d="M372 476l141 -142l142 142l34 -34l-142 -142l142 -141l-34 -34l-142 141l-141 -141l-34 34l141 141l-141 142zM513 -148q-141 0 -257 81l30 38q103 -71 227 -71q109 0 201 53.5t145.5 146t53.5 201t-53.5 200.5t-145.5 145.5t-201 53.5t-201 -53.5t-145.5 -145.5
t-53.5 -201q0 -125 72 -228l-34 -35q-86 117 -86 263q0 92 35.5 175t95.5 143t143 95t174 35t174 -35t143 -95t95.5 -143t35.5 -174.5t-35.5 -174.5t-95.5 -143t-143 -95.5t-174 -35.5z" />
  </font>
</defs>
</svg>
